<mxfile host="app.diagrams.net" agent="Mozilla/5.0 (Windows NT 10.0; Win64; x64) AppleWebKit/537.36 (KHTML, like Gecko) Chrome/127.0.0.0 Safari/537.36 OPR/113.0.0.0" version="24.7.17">
  <diagram name="Page-1" id="aKIprvcAsJTa-7cRHp32">
    <mxGraphModel dx="4320" dy="1305" grid="1" gridSize="10" guides="1" tooltips="1" connect="1" arrows="1" fold="1" page="1" pageScale="1" pageWidth="850" pageHeight="1100" math="0" shadow="0">
      <root>
        <mxCell id="0" />
        <mxCell id="1" parent="0" />
        <mxCell id="VH4sVCipupuqc5mWw4tM-1" value="&lt;h1 style=&quot;margin-top: 0px;&quot;&gt;In-Air Michelson IFO&lt;/h1&gt;" style="text;html=1;whiteSpace=wrap;overflow=hidden;rounded=0;align=center;" vertex="1" parent="1">
          <mxGeometry x="-1700" width="180" height="120" as="geometry" />
        </mxCell>
        <mxCell id="VH4sVCipupuqc5mWw4tM-3" value="&lt;h1 style=&quot;margin-top: 0px;&quot;&gt;376 Characterization&lt;/h1&gt;" style="text;html=1;whiteSpace=wrap;overflow=hidden;rounded=0;align=center;" vertex="1" parent="1">
          <mxGeometry x="-1700" y="1000" width="200" height="70" as="geometry" />
        </mxCell>
      </root>
    </mxGraphModel>
  </diagram>
</mxfile>
